<?xml version="1.0" encoding="UTF-8"?>
<svg version="1.1" xmlns="http://www.w3.org/2000/svg" width="192" height="192">
<path d="M0 0 C9.3191622 8.2971473 15.46906537 15.25549961 16.71386719 28.1574707 C16.87538349 31.76374848 16.96594426 35.36318976 17.01953125 38.97265625 C17.23060957 49.94711657 17.23060957 49.94711657 18.39453125 60.84765625 C14.09791307 60.35189261 11.4884111 57.60676267 8.39453125 54.84765625 C2.98363533 50.12292186 -2.59661218 45.80353941 -8.4375 41.625 C-9.15292969 41.03847656 -9.86835937 40.45195313 -10.60546875 39.84765625 C-10.60546875 39.18765625 -10.60546875 38.52765625 -10.60546875 37.84765625 C-11.14945312 37.60144531 -11.6934375 37.35523438 -12.25390625 37.1015625 C-15.12297495 35.57171025 -17.62057889 33.7232281 -20.23046875 31.78515625 C-24.99668652 28.25202163 -27.80080066 26.27906151 -33.94140625 26.2890625 C-39.30600028 27.41389673 -43.65858991 31.17373913 -47.60546875 34.84765625 C-47.60546875 35.50765625 -47.60546875 36.16765625 -47.60546875 36.84765625 C-45.81129669 38.53430087 -44.00680225 40.10142514 -42.10546875 41.66015625 C-41.52812988 42.14081543 -40.95079102 42.62147461 -40.35595703 43.11669922 C-38.44571978 44.70187615 -36.52705805 46.27626313 -34.60546875 47.84765625 C-33.61111816 48.66097412 -33.61111816 48.66097412 -32.59667969 49.49072266 C-29.20661816 52.25870219 -25.80922451 55.01744608 -22.40625 57.76953125 C-19.1473373 60.40526119 -15.90523767 63.06039873 -12.66796875 65.72265625 C-9.39783027 68.40761205 -6.09066743 71.02646974 -2.73046875 73.59765625 C0.57353036 76.14278631 3.44400347 78.89712847 6.39453125 81.84765625 C10.06078851 84.83104824 13.79260942 87.73208118 17.671875 90.43359375 C18.52458984 91.13355469 18.52458984 91.13355469 19.39453125 91.84765625 C19.39453125 92.50765625 19.39453125 93.16765625 19.39453125 93.84765625 C20.01328125 94.15703125 20.63203125 94.46640625 21.26953125 94.78515625 C22.64453125 95.47265625 24.01953125 96.16015625 25.39453125 96.84765625 C25.39453125 68.46765625 25.39453125 40.08765625 25.39453125 10.84765625 C44.03505413 10.84765625 44.03505413 10.84765625 49.39453125 14.84765625 C50.46703125 15.61078125 51.53953125 16.37390625 52.64453125 17.16015625 C55.83411013 20.2772447 57.40381768 22.86622911 59.39453125 26.84765625 C59.75463287 27.53127731 60.1147345 28.21489838 60.48574829 28.91923523 C61.85337685 33.32621951 61.68930562 37.61348529 61.68505859 42.20239258 C61.69177582 43.24365799 61.69849304 44.2849234 61.70541382 45.35774231 C61.72440431 48.79843932 61.72831865 52.23894135 61.73046875 55.6796875 C61.73689618 58.07476379 61.7436245 60.4698393 61.75064087 62.86491394 C61.76261645 67.88595398 61.76632142 72.9069252 61.76513672 77.92797852 C61.76493357 84.3539387 61.79223039 90.77945641 61.82668114 97.20531178 C61.8489468 102.15278642 61.85297434 107.10015456 61.85191727 112.04767418 C61.85427392 114.41629244 61.86310102 116.7849136 61.878582 119.15348244 C61.89823335 122.47087984 61.89240638 125.78732272 61.88037109 129.10473633 C61.89161011 130.07799866 61.90284912 131.05126099 61.91442871 132.05401611 C61.83733553 140.43972697 59.01892699 147.02829774 53.3359375 153.23828125 C46.39627229 158.99108219 38.18417316 160.57322251 29.3828125 160.21484375 C23.82068311 159.53139256 19.3612402 157.34731283 14.39453125 154.84765625 C13.91242188 155.49734375 13.4303125 156.14703125 12.93359375 156.81640625 C12.30195313 157.65171875 11.6703125 158.48703125 11.01953125 159.34765625 C10.39304688 160.18296875 9.7665625 161.01828125 9.12109375 161.87890625 C8.26644531 162.8534375 8.26644531 162.8534375 7.39453125 163.84765625 C6.73453125 163.84765625 6.07453125 163.84765625 5.39453125 163.84765625 C5.06453125 164.83765625 4.73453125 165.82765625 4.39453125 166.84765625 C-0.71700627 171.85242536 -6.90161411 174.62314943 -13.60546875 176.84765625 C-14.641875 177.20601562 -15.67828125 177.564375 -16.74609375 177.93359375 C-33.03638522 181.79182068 -48.73225901 178.77699423 -62.83984375 170.21484375 C-63.4225 169.76367188 -64.00515625 169.3125 -64.60546875 168.84765625 C-64.60546875 168.18765625 -64.60546875 167.52765625 -64.60546875 166.84765625 C-65.16234375 166.64140625 -65.71921875 166.43515625 -66.29296875 166.22265625 C-72.68951651 162.41930353 -76.72104184 154.75683429 -78.97265625 147.89038086 C-80.40899697 140.98408674 -79.90511937 133.80550262 -79.79296875 126.78515625 C-79.77789626 125.13998619 -79.76421239 123.4948028 -79.75195312 121.84960938 C-79.71914657 117.84862484 -79.66750641 113.84828994 -79.60546875 109.84765625 C-75.8147808 110.51238143 -73.68901818 111.20458062 -70.79296875 113.78515625 C-70.18839844 114.30980469 -69.58382812 114.83445312 -68.9609375 115.375 C-67.60546875 116.84765625 -67.60546875 116.84765625 -67.60546875 118.84765625 C-66.78755859 119.2034375 -66.78755859 119.2034375 -65.953125 119.56640625 C-63.00231442 121.17683199 -60.61842658 123.18917731 -58.04296875 125.34765625 C-55.27635164 127.66005264 -52.60670327 129.84683324 -49.60546875 131.84765625 C-49.60546875 132.50765625 -49.60546875 133.16765625 -49.60546875 133.84765625 C-49.01894531 134.11449219 -48.43242188 134.38132813 -47.828125 134.65625 C-44.91199544 136.21937744 -42.72290718 138.2907914 -40.2890625 140.5078125 C-37.09481884 143.0498672 -33.70579 143.18731693 -29.7265625 143.12890625 C-23.76720766 142.33871555 -19.481775 138.16696892 -15.60546875 133.84765625 C-14.94546875 132.85765625 -14.28546875 131.86765625 -13.60546875 130.84765625 C-14.19859863 130.5729248 -14.79172852 130.29819336 -15.40283203 130.01513672 C-17.50961073 128.89846461 -19.06923543 127.7420858 -20.84765625 126.16796875 C-21.73517578 125.39259766 -21.73517578 125.39259766 -22.640625 124.6015625 C-23.55134766 123.79525391 -23.55134766 123.79525391 -24.48046875 122.97265625 C-29.54498398 118.49463503 -29.54498398 118.49463503 -35.05078125 114.58984375 C-36.31535156 113.72746094 -36.31535156 113.72746094 -37.60546875 112.84765625 C-37.60546875 112.18765625 -37.60546875 111.52765625 -37.60546875 110.84765625 C-38.17136719 110.59113281 -38.73726563 110.33460937 -39.3203125 110.0703125 C-41.8680234 108.70717829 -43.92863013 107.11130554 -46.16796875 105.28515625 C-47.04710938 104.57101563 -47.92625 103.856875 -48.83203125 103.12109375 C-49.74726562 102.37085937 -50.6625 101.620625 -51.60546875 100.84765625 C-52.50007813 100.11804688 -53.3946875 99.3884375 -54.31640625 98.63671875 C-58.02706866 95.60652166 -61.73054412 92.56768413 -65.4296875 89.5234375 C-66.35394531 88.76417969 -67.27820313 88.00492187 -68.23046875 87.22265625 C-69.12636719 86.48660156 -70.02226563 85.75054687 -70.9453125 84.9921875 C-74.24447273 82.33251207 -77.61847087 79.78023086 -81.0234375 77.2578125 C-81.54550781 76.79246094 -82.06757812 76.32710938 -82.60546875 75.84765625 C-82.60546875 75.18765625 -82.60546875 74.52765625 -82.60546875 73.84765625 C-83.53359375 73.38359375 -83.53359375 73.38359375 -84.48046875 72.91015625 C-85.85546875 72.22265625 -87.23046875 71.53515625 -88.60546875 70.84765625 C-88.59072006 71.94790634 -88.57597137 73.04815643 -88.56077576 74.18174744 C-88.42275775 84.52682458 -88.29001672 94.87195762 -88.16250515 105.21716976 C-88.09677154 110.53633898 -88.02914811 115.85547046 -87.95727539 121.17456055 C-87.88804384 126.30324616 -87.82368538 131.43197146 -87.76277351 136.56076241 C-87.73861019 138.52209271 -87.71266053 140.48340181 -87.68493462 142.44468498 C-87.64654032 145.18175816 -87.61437354 147.91883641 -87.58374023 150.65600586 C-87.57079422 151.47527557 -87.55784821 152.29454529 -87.54450989 153.13864136 C-87.52645114 155.04166912 -87.56023303 156.94508049 -87.60546875 158.84765625 C-89.42554349 160.66773099 -92.15492385 160.0636209 -94.60546875 160.09765625 C-104.98462942 159.95051439 -110.49775706 157.47219921 -118.34375 150.6875 C-123.95381182 143.64343274 -125.19936663 135.99887769 -125.12304688 127.21655273 C-125.13356079 125.69985992 -125.13356079 125.69985992 -125.14428711 124.15252686 C-125.16175955 120.84098087 -125.15028315 117.53030327 -125.13671875 114.21875 C-125.13941653 111.90047544 -125.14330133 109.58220198 -125.14831543 107.26393127 C-125.15419576 102.41811289 -125.14569374 97.57259048 -125.12695312 92.72680664 C-125.10415212 86.5308374 -125.11730389 80.33556089 -125.14124298 74.13961697 C-125.15572948 69.35678431 -125.15108203 64.57411463 -125.14073181 59.79127693 C-125.13807309 57.50723246 -125.14130403 55.22317294 -125.15065002 52.93914604 C-125.16086377 49.74215624 -125.14524674 46.54627309 -125.12304688 43.34936523 C-125.1311438 42.41560562 -125.13924072 41.48184601 -125.14758301 40.51979065 C-125.03564783 31.77275617 -122.16934641 24.80938642 -116.24609375 18.34765625 C-110.15918307 12.78248077 -103.03500955 10.47372169 -94.91796875 10.53515625 C-94.21478516 10.53644531 -93.51160156 10.53773437 -92.78710938 10.5390625 C-87.04341162 10.64435485 -81.95183841 11.68854543 -76.60546875 13.84765625 C-75.98671875 12.97753906 -75.98671875 12.97753906 -75.35546875 12.08984375 C-67.44249199 1.38612965 -55.92507596 -6.80803715 -42.4921875 -8.90625 C-27.69539798 -10.16768131 -11.98424735 -9.90003042 0 0 Z " fill="#1F3344" transform="translate(127.60546875,13.15234375)"/>
<path d="M0 0 C9.3191622 8.2971473 15.46906537 15.25549961 16.71386719 28.1574707 C16.87538349 31.76374848 16.96594426 35.36318976 17.01953125 38.97265625 C17.23060957 49.94711657 17.23060957 49.94711657 18.39453125 60.84765625 C17.40453125 60.51765625 16.41453125 60.18765625 15.39453125 59.84765625 C15.18828125 58.65140625 14.98203125 57.45515625 14.76953125 56.22265625 C11.98154316 41.75276767 -0.92872875 27.02060332 -12.25 18.4375 C-21.08868014 12.47175735 -31.21707698 11.77517046 -41.60546875 12.84765625 C-49.21242055 15.35145194 -54.50956274 20.26154586 -59.828125 26.08984375 C-61.60546875 27.84765625 -61.60546875 27.84765625 -63.60546875 27.84765625 C-63.60546875 27.18765625 -63.60546875 26.52765625 -63.60546875 25.84765625 C-64.18683594 25.57824219 -64.76820312 25.30882812 -65.3671875 25.03125 C-67.6170311 23.84154213 -69.43412415 22.49804001 -71.41796875 20.91015625 C-76.87066916 16.77257839 -81.5357992 14.33036336 -88.60546875 14.84765625 C-88.60546875 14.18765625 -88.60546875 13.52765625 -88.60546875 12.84765625 C-90.37666678 12.98899124 -92.14742162 13.13588833 -93.91796875 13.28515625 C-94.90410156 13.36636719 -95.89023438 13.44757812 -96.90625 13.53125 C-99.69922474 13.76578184 -99.69922474 13.76578184 -102.60546875 14.84765625 C-103.56646484 15.03908203 -103.56646484 15.03908203 -104.546875 15.234375 C-107.00690332 15.96724871 -108.52515016 17.0818625 -110.54296875 18.66015625 C-111.23519531 19.19769531 -111.92742187 19.73523438 -112.640625 20.2890625 C-113.28902344 20.80339844 -113.93742187 21.31773438 -114.60546875 21.84765625 C-116.02859375 22.96140625 -116.02859375 22.96140625 -117.48046875 24.09765625 C-119.64493491 25.82290628 -119.64493491 25.82290628 -121.60546875 27.84765625 C-120.59916668 22.51191503 -117.19352714 18.69626939 -112.828125 15.578125 C-106.82251019 12.06937412 -101.86054288 10.48261075 -94.91796875 10.53515625 C-94.21478516 10.53644531 -93.51160156 10.53773437 -92.78710938 10.5390625 C-87.04341162 10.64435485 -81.95183841 11.68854543 -76.60546875 13.84765625 C-75.98671875 12.97753906 -75.98671875 12.97753906 -75.35546875 12.08984375 C-67.44249199 1.38612965 -55.92507596 -6.80803715 -42.4921875 -8.90625 C-27.69539798 -10.16768131 -11.98424735 -9.90003042 0 0 Z " fill="#33566A" transform="translate(127.60546875,13.15234375)"/>
<path d="M0 0 C3.43033238 2.55488297 6.57407677 5.34691707 9.68359375 8.28125 C15.51881585 13.72568097 21.8796951 18.58889661 28.125 23.55078125 C32.61328113 27.12860282 36.99426638 30.82142606 41.36499023 34.54077148 C44.7743046 37.43856381 48.21334401 40.29308403 51.6875 43.11328125 C55.87824486 46.52053903 59.97907613 50.01691911 64.0625 53.55078125 C69.87040056 58.56771018 75.8362526 63.34127809 81.89453125 68.05078125 C86.75444577 71.83399881 91.50297552 75.7522202 96.25 79.67578125 C94.69805246 83.00338048 92.94378051 85.1615861 90.25 87.67578125 C86.41802297 86.04398242 83.48878988 83.49977624 80.375 80.80078125 C79.81055176 80.31754395 79.24610352 79.83430664 78.66455078 79.33642578 C76.85619605 77.7869052 75.05278929 76.23177158 73.25 74.67578125 C70.87625321 72.63265425 68.50097864 70.59131219 66.125 68.55078125 C65.5374292 68.04571045 64.9498584 67.54063965 64.34448242 67.02026367 C59.96105269 63.26138271 55.51001835 59.59324108 51.02734375 55.953125 C47.90603433 53.39373908 44.82556761 50.7897658 41.75 48.17578125 C35.97463851 43.27024917 30.13007702 38.45549298 24.25 33.67578125 C22.45737884 32.21862136 20.66572346 30.76027262 18.875 29.30078125 C17.97394531 28.56730469 17.07289062 27.83382812 16.14453125 27.078125 C14.05399139 25.34306155 11.99410398 23.5918091 9.94921875 21.8046875 C0.82271766 13.84369196 -5.1589569 8.87711319 -17.75 9.28515625 C-22.8739027 9.95233108 -25.16580137 11.87307246 -28.5625 15.73828125 C-31.07693528 19.84078092 -30.88410248 23.77070265 -30.890625 28.4140625 C-30.908955 29.9720198 -30.9285255 31.52996292 -30.94921875 33.08789062 C-30.97815522 35.53694612 -30.99999936 37.98508874 -31.00048828 40.43432617 C-31.00383543 42.80338964 -31.03845371 45.17036379 -31.078125 47.5390625 C-31.0710553 48.2642659 -31.0639856 48.9894693 -31.05670166 49.73664856 C-31.14607865 53.49670571 -31.71859508 56.17662117 -33.91699219 59.18432617 C-36.75 61.67578125 -36.75 61.67578125 -40.0625 62.05078125 C-41.3928125 61.86515625 -41.3928125 61.86515625 -42.75 61.67578125 C-42.87722431 54.7016965 -42.96452903 47.7279132 -43.0246582 40.75292969 C-43.04973575 38.38237321 -43.08380632 36.01189355 -43.12719727 33.64160156 C-43.18814397 30.2257182 -43.2162785 26.81086089 -43.23828125 23.39453125 C-43.26408768 22.34213257 -43.2898941 21.28973389 -43.31648254 20.20544434 C-43.31904864 13.40767314 -42.19024848 8.92123431 -37.75 3.67578125 C-35.43359375 1.6171875 -35.43359375 1.6171875 -33.1875 0.23828125 C-32.44371094 -0.23480469 -31.69992188 -0.70789062 -30.93359375 -1.1953125 C-22.26543658 -5.67670324 -8.27315275 -4.96109666 0 0 Z " fill="#31C9EB" transform="translate(55.75,46.32421875)"/>
<path d="M0 0 C2.19019083 1.66171195 4.21248229 3.30002682 6.25 5.125 C7.39249924 6.12062989 8.53573923 7.11541034 9.6796875 8.109375 C10.24139648 8.60115234 10.80310547 9.09292969 11.38183594 9.59960938 C13.66935459 11.57927247 16.01974659 13.47673606 18.375 15.375 C23.49653981 19.54091722 28.47239757 23.86090195 33.44824219 28.19824219 C37.98504792 32.14399333 42.5958239 35.98247636 47.26953125 39.765625 C50.31966945 42.26158931 53.31574611 44.81551564 56.3125 47.375 C62.05689589 52.27026188 67.94956513 56.95638076 73.90625 61.58984375 C75.87218098 63.12138342 77.82564991 64.66916181 79.76171875 66.23828125 C83.91153057 69.50453802 87.61968987 70.45514968 92.9375 70.32421875 C96.60207546 69.74815859 98.97023201 68.1208376 102 66 C104.0312795 62.95308074 104.29817674 61.68913029 104.75 58.1875 C105.74772368 52.69197359 107.65782387 50.4375561 112 47 C112.66 47 113.32 47 114 47 C114 46.34 114 45.68 114 45 C114.66 45 115.32 45 116 45 C116.17565094 48.99943677 116.28130466 52.99787064 116.375 57 C116.42527344 58.12535156 116.47554687 59.25070313 116.52734375 60.41015625 C116.64628344 67.18971872 116.0845919 71.30037645 111.54956055 76.47509766 C106.20387958 81.73571265 101.71456175 84.28293028 94.125 84.3125 C84.06145995 84.06734677 79.1630099 79.8002982 71.72363281 73.45849609 C68.34707472 70.6013349 64.91798233 67.80733291 61.5 65 C60.0259162 63.78530849 58.55195558 62.57046748 57.078125 61.35546875 C53.81040629 58.66418524 50.53260571 55.98561605 47.25 53.3125 C42.70524812 49.60221698 38.23111135 45.81375941 33.76245117 42.01269531 C30.57138855 39.30604538 27.3460894 36.65707392 24.0625 34.0625 C19.32549007 30.31140433 14.75769419 26.3811222 10.18530273 22.43310547 C6.71771789 19.44735336 3.21234218 16.5297788 -0.375 13.6875 C-1.91737288 12.45921961 -3.45906862 11.23008833 -5 10 C-5.78890625 9.37222656 -6.5778125 8.74445313 -7.390625 8.09765625 C-8.12796875 7.48792969 -8.8653125 6.87820312 -9.625 6.25 C-10.27726562 5.71890625 -10.92953125 5.1878125 -11.6015625 4.640625 C-13 3 -13 3 -13 -1 C-7.77892974 -3.41952036 -4.84384936 -2.68901302 0 0 Z " fill="#2BB5E1" transform="translate(62,71)"/>
<path d="M0 0 C12.57361862 7.76435435 26.34146373 24.00967957 30.14453125 38.609375 C30.4375 40.5625 30.4375 40.5625 30.5625 43.375 C27.35326115 41.91956288 24.84193997 40.11086291 22.125 37.875 C19.1270104 35.42821028 16.11334804 33.01922018 13.01953125 30.6953125 C12.42519287 30.24736328 11.83085449 29.79941406 11.21850586 29.33789062 C10.04198933 28.45409205 8.8618605 27.57507949 7.67797852 26.70117188 C6.26987538 25.63890006 4.91092296 24.5120714 3.5625 23.375 C3.5625 22.715 3.5625 22.055 3.5625 21.375 C3.01851562 21.12878906 2.47453125 20.88257812 1.9140625 20.62890625 C-0.9550062 19.099054 -3.45261014 17.25057185 -6.0625 15.3125 C-10.83540394 11.77440901 -13.64057714 9.80645724 -19.7890625 9.81640625 C-24.29676562 10.76714599 -27.42718871 13.58747663 -30.95703125 16.4296875 C-33.4375 18.375 -33.4375 18.375 -37.4375 20.375 C-40.7375 17.735 -44.0375 15.095 -47.4375 12.375 C-37.97647252 -6.54705497 -17.5077586 -8.27639498 0 0 Z " fill="#273F50" transform="translate(113.4375,29.625)"/>
<path d="M0 0 C0.66 0 1.32 0 2 0 C2.17565094 3.99943677 2.28130466 7.99787064 2.375 12 C2.42527344 13.12535156 2.47554687 14.25070313 2.52734375 15.41015625 C2.64628344 22.18971872 2.0845919 26.30037645 -2.45043945 31.47509766 C-7.79612042 36.73571265 -12.28543825 39.28293028 -19.875 39.3125 C-29.98234578 39.06627964 -34.84144155 34.75415524 -42.32275391 28.40332031 C-45.56463835 25.69089647 -48.88130653 23.07080334 -52.1875 20.4375 C-53.49353182 19.39458413 -54.79952491 18.35161977 -56.10546875 17.30859375 C-57.06066406 16.54675781 -58.01585938 15.78492188 -59 15 C-58.34 14.67 -57.68 14.34 -57 14 C-56.34 14.33 -55.68 14.66 -55 15 C-55 14.01 -55 13.02 -55 12 C-54.195625 11.87625 -53.39125 11.7525 -52.5625 11.625 C-51.716875 11.41875 -50.87125 11.2125 -50 11 C-49.67 10.34 -49.34 9.68 -49 9 C-48.29037109 9.63615234 -48.29037109 9.63615234 -47.56640625 10.28515625 C-43.88536053 13.55002136 -40.15747783 16.74167878 -36.3125 19.8125 C-35.60738281 20.37582031 -34.90226562 20.93914062 -34.17578125 21.51953125 C-29.43401529 24.74597523 -24.69857238 25.89579831 -19 25 C-15.03580504 23.42825864 -12.40149467 21.602242 -10 18 C-9.70329047 16.40381262 -9.45776535 14.79768144 -9.25 13.1875 C-8.25227632 7.69197359 -6.34217613 5.4375561 -2 2 C-1.34 2 -0.68 2 0 2 C0 1.34 0 0.68 0 0 Z " fill="#23A3D7" transform="translate(176,116)"/>
<path d="M0 0 C1.14662109 -0.02416992 1.14662109 -0.02416992 2.31640625 -0.04882812 C13.91289138 -0.05867234 22.13964622 5.95463945 30.4609375 13.546875 C37.24376383 20.58828416 42.29603677 28.86181434 47.125 37.3125 C47.125 29.7225 47.125 22.1325 47.125 14.3125 C49.14477492 18.35204983 49.40401886 20.15696856 49.50390625 24.546875 C49.53806641 25.76117188 49.57222656 26.97546875 49.60742188 28.2265625 C49.64706055 30.12535156 49.64706055 30.12535156 49.6875 32.0625 C49.93425061 43.22482982 49.93425061 43.22482982 51.125 54.3125 C49.64 53.8175 49.64 53.8175 48.125 53.3125 C47.815625 51.518125 47.815625 51.518125 47.5 49.6875 C44.71201191 35.21761142 31.80174 20.48544707 20.48046875 11.90234375 C11.65582521 5.94607522 1.53645343 5.18127568 -8.875 6.3125 C-13.61750544 8.07559614 -17.96324257 10.33197432 -21.50390625 14 C-22.875 15.3125 -22.875 15.3125 -25.5625 15.5 C-26.325625 15.438125 -27.08875 15.37625 -27.875 15.3125 C-26.99389389 11.68562137 -26.35814045 9.72616927 -23.484375 7.265625 C-22.54078125 6.70359375 -21.5971875 6.1415625 -20.625 5.5625 C-19.22507812 4.70398438 -19.22507812 4.70398438 -17.796875 3.828125 C-11.75304693 0.69309119 -6.68940625 -0.02791906 0 0 Z " fill="#94AFB9" transform="translate(94.875,19.6875)"/>
<path d="M0 0 C2.22807205 2.0581109 3.64721229 3.94208476 4.98046875 6.66015625 C5.3357666 7.36672363 5.69106445 8.07329102 6.05712891 8.80126953 C6.43015137 9.54747559 6.80317383 10.29368164 7.1875 11.0625 C10.785808 18.04849052 14.67626321 24.17028823 20 30 C20.84304687 30.96292969 20.84304687 30.96292969 21.703125 31.9453125 C27.23060502 37.9118914 34.6201086 43.65083786 43 44 C44.08861328 44.09087891 44.08861328 44.09087891 45.19921875 44.18359375 C53.24484414 44.60040009 60.79357092 42.47512857 67.375 37.75 C70.24541529 35.83638981 71.6267925 35.60315206 75 36 C74.61561078 38.477175 74.24543012 39.7495611 72.46875 41.5625 C70.3495021 43.10988735 68.20884056 44.58300794 66 46 C65.36191406 46.42023438 64.72382812 46.84046875 64.06640625 47.2734375 C56.10099727 51.65208337 45.72597721 51.20546889 37.03125 49.375 C22.03825375 44.06102665 12.09957446 29.84625927 5.15625 16.2421875 C3.95780879 13.8157515 3.95780879 13.8157515 2 11 C2 18.92 2 26.84 2 35 C-0.39629455 31.40555817 -0.25781331 28.85138348 -0.1953125 24.70703125 C-0.1924826 24.00100266 -0.18965271 23.29497406 -0.18673706 22.56755066 C-0.17555464 20.31569367 -0.1504542 18.06423648 -0.125 15.8125 C-0.11496767 14.28451096 -0.10584226 12.75651567 -0.09765625 11.22851562 C-0.07562172 7.48552337 -0.04110567 3.74282944 0 0 Z " fill="#668090" transform="translate(48,126)"/>
<path d="M0 0 C12.77719075 -0.55822678 20.24606678 0.2214601 30 9 C29.67 9.66 29.34 10.32 29 11 C28.59910156 10.60167969 28.19820312 10.20335937 27.78515625 9.79296875 C20.15902207 2.68561921 12.16460521 1.5509786 2 1 C2.680625 1.680625 3.36125 2.36125 4.0625 3.0625 C4.51625 3.52011719 4.97 3.97773438 5.4375 4.44921875 C6.52638689 5.52993899 7.63202294 6.59393227 8.75 7.64453125 C15.88441985 14.4560571 21.02528276 22.85010638 21.34057617 32.94726562 C21.34010777 34.76699622 21.32355257 36.58677637 21.29296875 38.40625 C21.28872391 39.3715564 21.28447906 40.33686279 21.28010559 41.3314209 C21.26343097 44.3879083 21.22579992 47.44371485 21.1875 50.5 C21.17243866 52.58332375 21.1587528 54.66665793 21.14648438 56.75 C21.11356424 61.83359215 21.06186016 66.91668099 21 72 C19.515 72.495 19.515 72.495 18 73 C17.67 73.66 17.34 74.32 17 75 C16.34 75 15.68 75 15 75 C14.99413376 74.39136108 14.98826752 73.78272217 14.98222351 73.15563965 C14.91807261 66.79584279 14.8335976 60.43654183 14.73754883 54.07714844 C14.70438427 51.70677242 14.67632622 49.33631905 14.65356445 46.96582031 C14.61986312 43.54979624 14.56753791 40.1344757 14.51171875 36.71875 C14.50532883 35.66635132 14.4989389 34.61395264 14.49235535 33.52966309 C14.33461987 25.55742093 13.04830089 19.06684228 8 12.625 C7.505 11.97789063 7.01 11.33078125 6.5 10.6640625 C4.90833368 8.76076765 4.90833368 8.76076765 2 7 C2 6.34 2 5.68 2 5 C1.34 5 0.68 5 0 5 C0 3.35 0 1.7 0 0 Z " fill="#8FA5AE" transform="translate(153,24)"/>
<path d="M0 0 C5.69774389 1.38735265 8.97413727 4.21596691 13.1875 8.0625 C14.52632783 9.25374693 15.86617643 10.44384759 17.20703125 11.6328125 C18.182771 12.50341309 18.182771 12.50341309 19.17822266 13.39160156 C22.35737209 16.19838748 25.65496168 18.85403951 28.94921875 21.5234375 C33.04583466 24.84898742 37.11600815 28.20627023 41.1875 31.5625 C42.6809859 32.79297322 44.17447518 34.02344234 45.66796875 35.25390625 C46.77866636 36.16924593 47.88935173 37.08460045 49 38 C47.02 38.495 47.02 38.495 45 39 C45.99 39.99 46.98 40.98 48 42 C47.505 42.99 47.505 42.99 47 44 C41.55773257 39.60175939 36.16410359 35.16336377 30.87695312 30.58032227 C25.63476987 26.03870391 20.3422395 21.58187872 14.875 17.3125 C13.84117188 16.50425781 12.80734375 15.69601563 11.7421875 14.86328125 C7.98922134 12.31318886 6.2149135 11.83645395 1.75 12.4375 C0.8425 12.623125 -0.065 12.80875 -1 13 C-1.33 14.32 -1.66 15.64 -2 17 C-3.98 15.35 -5.96 13.7 -8 12 C-7.875 10.3125 -7.875 10.3125 -7 8 C-5.02043058 6.30911778 -3.02054804 4.64169528 -1 3 C-0.67 2.01 -0.34 1.02 0 0 Z " fill="#183748" transform="translate(50,57)"/>
<path d="M0 0 C5.84884764 0.35393934 8.56741556 2.70609855 12.6875 6.5 C13.91419933 7.59505674 15.14207906 8.6887925 16.37109375 9.78125 C16.97808105 10.32523438 17.58506836 10.86921875 18.21044922 11.4296875 C21.65372388 14.45112578 25.2811269 17.24324705 28.890625 20.0625 C30.95751298 21.96097488 31.96323113 23.41959747 33 26 C31.35 26.33 29.7 26.66 28 27 C28 27.99 28 28.98 28 30 C23.47175115 28.72787187 20.50419537 27.1110047 16.9375 24.0625 C16.00164062 23.26585938 15.06578125 22.46921875 14.1015625 21.6484375 C13.6055957 21.22143555 13.10962891 20.79443359 12.59863281 20.35449219 C10.88880156 18.90578361 9.14791602 17.50207837 7.3984375 16.1015625 C6.20295154 15.13042182 5.00763605 14.15907125 3.8125 13.1875 C3.23556396 12.73189697 2.65862793 12.27629395 2.06420898 11.80688477 C0.45703125 10.48046875 0.45703125 10.48046875 -2 8 C-2 6.68 -2 5.36 -2 4 C-1.34 4 -0.68 4 0 4 C0 2.68 0 1.36 0 0 Z " fill="#2BBBE5" transform="translate(93,101)"/>
<path d="M0 0 C0.99 0.33 1.98 0.66 3 1 C2.01 1.495 2.01 1.495 1 2 C1.01474869 3.10025009 1.02949738 4.20050018 1.04469299 5.33409119 C1.182711 15.67916833 1.31545203 26.02430137 1.4429636 36.36951351 C1.50869721 41.68868273 1.57632064 47.00781421 1.64819336 52.3269043 C1.71742491 57.45558991 1.78178337 62.58431521 1.84269524 67.71310616 C1.86685856 69.67443646 1.89280822 71.63574556 1.92053413 73.59702873 C1.95892843 76.33410191 1.99109521 79.07118016 2.02172852 81.80834961 C2.03467453 82.62761932 2.04762054 83.44688904 2.06095886 84.29098511 C2.07901761 86.19401287 2.04523572 88.09742424 2 90 C0.16799239 91.83200761 -2.66561695 91.1734944 -5.125 91.1875 C-10.17526868 91.15972074 -14.28065085 90.75603689 -19 89 C-19 88.67 -19 88.34 -19 88 C-17.72125 88.144375 -16.4425 88.28875 -15.125 88.4375 C-10.08719116 88.99814645 -5.04463121 89.50501531 0 90 C-0.639375 89.360625 -1.27875 88.72125 -1.9375 88.0625 C-2.39125 87.60101563 -2.845 87.13953125 -3.3125 86.6640625 C-4.55347783 85.44032047 -5.8300139 84.25237718 -7.125 83.0859375 C-13.82065735 76.86530989 -19.1057525 70.080883 -20.46875 60.8125 C-20.64727878 54.86154083 -19.9870882 50.16996035 -17 45 C-16.01 44.505 -16.01 44.505 -15 44 C-14.9906543 44.55349121 -14.98130859 45.10698242 -14.97167969 45.67724609 C-14.66414706 60.16444494 -14.04824941 70.2878228 -3.8046875 81.28515625 C-2.10094989 83.07115649 -2.10094989 83.07115649 0 84 C0 56.28 0 28.56 0 0 Z " fill="#919EA7" transform="translate(38,82)"/>
<path d="M0 0 C3.65946885 -0.53339122 4.87265289 -0.09035903 7.9453125 2.08984375 C9.01567195 3.02724764 10.07506721 3.97727266 11.125 4.9375 C12.28310037 5.95788742 13.44196596 6.97740694 14.6015625 7.99609375 C15.46249512 8.76155518 15.46249512 8.76155518 16.34082031 9.54248047 C18.67538445 11.59329682 21.08309129 13.54733622 23.5 15.5 C27.65214054 18.88502953 31.77603279 22.30092567 35.875 25.75 C36.6784082 26.42192383 36.6784082 26.42192383 37.49804688 27.10742188 C40.83953937 29.92903348 43.95095492 32.8721973 47 36 C46.01 36 45.02 36 44 36 C43.67 36.99 43.34 37.98 43 39 C32.80815711 30.8863203 22.7161048 22.67832189 12.85839844 14.16113281 C12.29926758 13.67870117 11.74013672 13.19626953 11.1640625 12.69921875 C10.63071289 12.23692871 10.09736328 11.77463867 9.54785156 11.29833984 C8.10488928 10.08798126 6.59700282 8.95621524 5.0859375 7.83203125 C4.39757812 7.22746094 3.70921875 6.62289062 3 6 C3 5.01 3 4.02 3 3 C2.01 2.67 1.02 2.34 0 2 C0 1.34 0 0.68 0 0 Z " fill="#163347" transform="translate(95,96)"/>
<path d="M0 0 C0.99 0 1.98 0 3 0 C3.10151557 6.45941732 3.17151376 12.91862852 3.21972656 19.37866211 C3.23982767 21.57568042 3.26711306 23.77264532 3.30175781 25.96948242 C3.35034093 29.12952866 3.37298405 32.28886687 3.390625 35.44921875 C3.41127014 36.42960617 3.43191528 37.40999359 3.45318604 38.42008972 C3.45461353 42.76970386 3.42867123 45.28790184 1.14746094 49.07739258 C-1.14525124 51.13004246 -3.06991182 52.10469528 -6 53 C-5.36771484 52.16855469 -5.36771484 52.16855469 -4.72265625 51.3203125 C-4.17480469 50.59585938 -3.62695312 49.87140625 -3.0625 49.125 C-2.51722656 48.40570313 -1.97195312 47.68640625 -1.41015625 46.9453125 C1.01006961 43.60660757 1.1715652 41.43287007 1.31640625 37.3359375 C1.35830078 36.21445313 1.40019531 35.09296875 1.44335938 33.9375 C1.48267578 32.761875 1.52199219 31.58625 1.5625 30.375 C1.60568359 29.19164063 1.64886719 28.00828125 1.69335938 26.7890625 C1.79967426 23.85949672 1.90170642 20.92984412 2 18 C1.34 18 0.68 18 0 18 C0 18.66 0 19.32 0 20 C-1.49609375 21.33203125 -1.49609375 21.33203125 -3.4375 22.8125 C-5.9938918 24.9101844 -6.88777635 25.65584747 -7.9375 28.875 C-7.958125 29.57625 -7.97875 30.2775 -8 31 C-8.33 31 -8.66 31 -9 31 C-9.02903577 27.89585298 -9.0468107 24.79174091 -9.0625 21.6875 C-9.07087891 20.80642578 -9.07925781 19.92535156 -9.08789062 19.01757812 C-9.09111328 18.17001953 -9.09433594 17.32246094 -9.09765625 16.44921875 C-9.10289307 15.66893311 -9.10812988 14.88864746 -9.11352539 14.0847168 C-9 12 -9 12 -8 9 C-7.01 8.34 -6.02 7.68 -5 7 C-3.96986723 5.35178756 -2.96885372 3.68496298 -2 2 C-1.34 1.34 -0.68 0.68 0 0 Z " fill="#193F5E" transform="translate(176,98)"/>
<path d="M0 0 C4.68352299 1.2872841 7.64957614 3.00299198 11.25 6.25 C12.52617188 7.37148437 12.52617188 7.37148437 13.828125 8.515625 C16.22557694 11.25803405 17.0902217 13.50240789 18 17 C14.10766151 16.45939743 12.07134898 15.37781856 9 13 C5.49901714 11.59960685 2.63251017 12.25698656 -1 13 C-1.33 14.32 -1.66 15.64 -2 17 C-3.98 15.35 -5.96 13.7 -8 12 C-7.875 10.3125 -7.875 10.3125 -7 8 C-5.02043058 6.30911778 -3.02054804 4.64169528 -1 3 C-0.67 2.01 -0.34 1.02 0 0 Z " fill="#183446" transform="translate(50,57)"/>
<path d="M0 0 C5.72554976 4.25906017 11.37992202 8.60280936 17 13 C15.44805246 16.32759923 13.69378051 18.48580485 11 21 C6.92511907 19.30213295 3.80587028 16.47359571 0.5 13.625 C-0.06847656 13.14289063 -0.63695312 12.66078125 -1.22265625 12.1640625 C-4.27711716 9.55607731 -7.20546758 6.89042324 -10 4 C-8.88625 4.4640625 -8.88625 4.4640625 -7.75 4.9375 C-5.49307824 5.8094925 -3.3549847 6.47667007 -1 7 C-0.67 4.69 -0.34 2.38 0 0 Z " fill="#1C6FA1" transform="translate(135,113)"/>
<path d="M0 0 C2.08766076 3.13149114 2.2521795 3.84410315 2.26742554 7.4070282 C2.27595551 8.30831955 2.28448547 9.2096109 2.29327393 10.13821411 C2.29236755 11.12473969 2.29146118 12.11126526 2.29052734 13.12768555 C2.29724457 14.16865891 2.30396179 15.20963226 2.31088257 16.28215027 C2.32992537 19.7337213 2.33379038 23.18509841 2.3359375 26.63671875 C2.34236259 29.03465353 2.34909073 31.43258751 2.35610962 33.83052063 C2.36809919 38.86351335 2.37178887 43.89643736 2.37060547 48.92944336 C2.37040254 55.37115503 2.39767087 61.81242425 2.43214989 68.25403118 C2.45441913 73.21008822 2.45844294 78.16603894 2.45738602 83.12214088 C2.45974323 85.49634128 2.46857347 87.87054455 2.48405075 90.24469566 C2.50370413 93.57188952 2.49787373 96.89813175 2.48583984 100.2253418 C2.49707886 101.20174622 2.50831787 102.17815063 2.51989746 103.18414307 C2.44294229 111.58135651 -0.36725652 118.17151966 -6.05859375 124.390625 C-13.99003724 130.96558419 -23.09785221 131.71870428 -33 131 C-33 130.67 -33 130.34 -33 130 C-32.31035156 129.96261719 -31.62070313 129.92523438 -30.91015625 129.88671875 C-20.5885995 129.16463453 -13.89631587 127.33501014 -6.04296875 120.42578125 C-0.38483186 113.70741986 0.57802208 107.60948002 0.45410156 98.99414062 C0.45468567 97.92007965 0.45526978 96.84601868 0.45587158 95.7394104 C0.45309877 92.21135435 0.42204346 88.68415733 0.390625 85.15625 C0.38315979 82.7014614 0.37746818 80.24666682 0.37347412 77.79187012 C0.35824004 71.34736527 0.31897679 64.90322402 0.2746582 58.4588623 C0.23365782 51.87627073 0.21545289 45.2936201 0.1953125 38.7109375 C0.1524809 25.80713702 0.08503069 12.9035879 0 0 Z " fill="#B2B9BE" transform="translate(187,42)"/>
<path d="M0 0 C4.68261845 3.01025472 8.86994916 6.70610048 13.078125 10.3359375 C10.0167255 11.86663725 7.3978739 10.85107095 4.078125 10.3359375 C2.758125 10.3359375 1.438125 10.3359375 0.078125 10.3359375 C0.408125 11.6559375 0.738125 12.9759375 1.078125 14.3359375 C-8.50327035 7.35919331 -8.50327035 7.35919331 -10.921875 4.3359375 C-10.921875 3.0159375 -10.921875 1.6959375 -10.921875 0.3359375 C-6.78480021 -1.5812435 -4.17843079 -2.05157187 0 0 Z " fill="#2599C9" transform="translate(59.921875,69.6640625)"/>
<path d="M0 0 C0.66 0 1.32 0 2 0 C0.50328459 4.49014624 -1.83368341 8.47848764 -5 12 C-5.66 12 -6.32 12 -7 12 C-7.33 12.99 -7.66 13.98 -8 15 C-13.11153752 20.00476911 -19.29614536 22.77549318 -26 25 C-27.03382812 25.35964844 -28.06765625 25.71929687 -29.1328125 26.08984375 C-34.08684799 27.25579352 -38.74159762 27.32978324 -43.8125 27.3125 C-45.21338867 27.33666992 -45.21338867 27.33666992 -46.64257812 27.36132812 C-53.22669232 27.36589725 -58.81076274 26.22590204 -65 24 C-65 23.67 -65 23.34 -65 23 C-63.41251953 23.23589844 -63.41251953 23.23589844 -61.79296875 23.4765625 C-44.59484891 25.60128076 -27.60195643 26.15508375 -13.125 15.6875 C-7.84478684 11.23383954 -2.9067049 6.33296575 0 0 Z " fill="#B6BBC0" transform="translate(140,165)"/>
<path d="M0 0 C1.05586304 0.00519653 1.05586304 0.00519653 2.13305664 0.01049805 C7.68544655 0.12555043 13.36008277 0.58361704 18.3125 3.3125 C18.8075 4.7975 18.8075 4.7975 19.3125 6.3125 C16.38439979 5.83583252 13.46921547 5.34455544 10.5625 4.75 C8.36731822 4.24887678 8.36731822 4.24887678 6.3125 4.3125 C6.3125 3.6525 6.3125 2.9925 6.3125 2.3125 C4.54130197 2.45383499 2.77054713 2.60073208 1 2.75 C-0.47919922 2.87181641 -0.47919922 2.87181641 -1.98828125 2.99609375 C-4.78125599 3.23062559 -4.78125599 3.23062559 -7.6875 4.3125 C-8.64849609 4.50392578 -8.64849609 4.50392578 -9.62890625 4.69921875 C-12.08893457 5.43209246 -13.60718141 6.54670625 -15.625 8.125 C-16.31722656 8.66253906 -17.00945313 9.20007813 -17.72265625 9.75390625 C-18.37105469 10.26824219 -19.01945312 10.78257813 -19.6875 11.3125 C-21.110625 12.42625 -21.110625 12.42625 -22.5625 13.5625 C-24.72696616 15.28775003 -24.72696616 15.28775003 -26.6875 17.3125 C-25.68119793 11.97675878 -22.27555839 8.16111314 -17.91015625 5.04296875 C-11.9057012 1.53489545 -6.94191259 -0.05499682 0 0 Z " fill="#6E8594" transform="translate(32.6875,23.6875)"/>
<path d="M0 0 C2.01977492 4.03954983 2.27901886 5.84446856 2.37890625 10.234375 C2.43014648 12.05582031 2.43014648 12.05582031 2.48242188 13.9140625 C2.50884766 15.17992187 2.53527344 16.44578125 2.5625 17.75 C2.80925061 28.91232982 2.80925061 28.91232982 4 40 C3.01 39.67 2.02 39.34 1 39 C0.79375 37.80375 0.5875 36.6075 0.375 35.375 C-0.67789148 29.50347005 -3.7953275 24.98276473 -6.98876953 20.05419922 C-8.04481972 18.40175118 -9.02907492 16.70385768 -10 15 C-9.67 14.34 -9.34 13.68 -9 13 C-8.01 13 -7.02 13 -6 13 C-3.67956426 16.16166427 -1.92642791 19.57523927 0 23 C0 15.41 0 7.82 0 0 Z " fill="#ADBBC2" transform="translate(142,34)"/>
<path d="M0 0 C0.66 0 1.32 0 2 0 C2.05784708 4.12494151 2.09354407 8.24977944 2.125 12.375 C2.15013672 14.1384375 2.15013672 14.1384375 2.17578125 15.9375 C2.18222656 17.05898437 2.18867188 18.18046875 2.1953125 19.3359375 C2.20578613 20.37282715 2.21625977 21.4097168 2.22705078 22.47802734 C2 25 2 25 0 27 C0 21.39 0 15.78 0 10 C-4.69529042 12.81717425 -5.60682428 13.57262492 -8 18 C-8.33 18 -8.66 18 -9 18 C-8.96174578 8.32168186 -8.96174578 8.32168186 -5.0625 4.375 C-2 2 -2 2 0 2 C0 1.34 0 0.68 0 0 Z " fill="#2487BC" transform="translate(176,116)"/>
<path d="M0 0 C1.34444159 0.90029571 2.67531438 1.82088022 4 2.75 C5.11375 3.51570313 5.11375 3.51570313 6.25 4.296875 C7.11625 5.13992187 7.11625 5.13992187 8 6 C8 7.32 8 8.64 8 10 C7.01 10.33 6.02 10.66 5 11 C5 11.66 5 12.32 5 13 C-1.92988052 12.85562749 -5.19760593 9.77744657 -10 5 C-9.34 4.67 -8.68 4.34 -8 4 C-5.64018187 4.93578995 -3.30368736 5.93347808 -1 7 C-0.67 4.69 -0.34 2.38 0 0 Z " fill="#2492C5" transform="translate(135,113)"/>
<path d="M0 0 C0.66 0 1.32 0 2 0 C2 3.3 2 6.6 2 10 C1.34 10 0.68 10 0 10 C0 10.66 0 11.32 0 12 C-1.49609375 13.33203125 -1.49609375 13.33203125 -3.4375 14.8125 C-5.9938918 16.9101844 -6.88777635 17.65584747 -7.9375 20.875 C-7.958125 21.57625 -7.97875 22.2775 -8 23 C-8.33 23 -8.66 23 -9 23 C-10.07546893 13.71341113 -10.07546893 13.71341113 -7.51171875 9.62890625 C-6.2942308 8.29546706 -5.03390322 6.99937693 -3.7265625 5.75390625 C-1.94497212 3.94410064 -1.00723676 2.31460972 0 0 Z " fill="#1D5682" transform="translate(176,106)"/>
<path d="M0 0 C12.77719075 -0.55822678 20.24606678 0.2214601 30 9 C29.67 9.66 29.34 10.32 29 11 C28.59910156 10.60167969 28.19820312 10.20335937 27.78515625 9.79296875 C20.15902207 2.68561921 12.16460521 1.5509786 2 1 C2.721875 1.70125 3.44375 2.4025 4.1875 3.125 C6.99823813 5.92770745 9.49516226 8.92262792 12 12 C10.3125 12.8125 10.3125 12.8125 8 13 C4.96830161 10.46183391 3.25830363 8.77491089 2 5 C1.34 5 0.68 5 0 5 C0 3.35 0 1.7 0 0 Z " fill="#A3B2BA" transform="translate(153,24)"/>
<path d="M0 0 C2.875 -0.1875 2.875 -0.1875 6 0 C6.66 0.99 7.32 1.98 8 3 C8.99 2.01 9.98 1.02 11 0 C10.49930857 4.38104998 9.21775827 6.95617461 6 10 C2.75 10.3125 2.75 10.3125 0 10 C0 6.7 0 3.4 0 0 Z " fill="#247EAD" transform="translate(13,98)"/>
<path d="M0 0 C0.33 0 0.66 0 1 0 C1 16.5 1 33 1 50 C2.485 49.505 2.485 49.505 4 49 C4.99 49.66 5.98 50.32 7 51 C5.35 52.98 3.7 54.96 2 57 C1.34 56.67 0.68 56.34 0 56 C0 37.52 0 19.04 0 0 Z " fill="#155171" transform="translate(12,58)"/>
<path d="M0 0 C4.00104151 3.87851176 6.78027708 8.36332501 7.25 14 C7.1675 14.66 7.085 15.32 7 16 C6.34 16 5.68 16 5 16 C4.01 14.35 3.02 12.7 2 11 C2 18.92 2 26.84 2 35 C-0.39629455 31.40555817 -0.25781331 28.85138348 -0.1953125 24.70703125 C-0.1924826 24.00100266 -0.18965271 23.29497406 -0.18673706 22.56755066 C-0.17555464 20.31569367 -0.1504542 18.06423648 -0.125 15.8125 C-0.11496767 14.28451096 -0.10584226 12.75651567 -0.09765625 11.22851562 C-0.07562172 7.48552337 -0.04110567 3.74282944 0 0 Z " fill="#778690" transform="translate(48,126)"/>
<path d="M0 0 C2.3125 2.5 2.3125 2.5 4 5 C-0.455 5.495 -0.455 5.495 -5 6 C-5.33 7.32 -5.66 8.64 -6 10 C-8 8.25 -8 8.25 -10 6 C-10 4.68 -10 3.36 -10 2 C-6.54512804 0.42062996 -3.79976177 -0.68200852 0 0 Z " fill="#1E4970" transform="translate(54,64)"/>
<path d="M0 0 C3.60585177 1.20195059 3.90846981 2.08186161 5.8125 5.25 C8.45120127 9.39653056 11.06069215 12.09241563 15 15 C14.67 16.32 14.34 17.64 14 19 C0.33002901 7.58522727 0.33002901 7.58522727 -0.375 2.0625 C-0.25125 1.381875 -0.1275 0.70125 0 0 Z " fill="#708694" transform="translate(23,151)"/>
<path d="M0 0 C3.51350232 1.56986274 4.34340555 2.87261197 5.9375 6.3125 C6.5975 7.3025 7.2575 8.2925 7.9375 9.3125 C4.90281169 7.907678 2.41434751 6.19668009 -0.25 4.1875 C-4.10256074 1.64845508 -7.00492464 0.28332269 -11.65625 0.578125 C-16.86289557 2.16716618 -20.9073379 5.92025291 -25.0625 9.3125 C-26.0525 9.9725 -27.0425 10.6325 -28.0625 11.3125 C-26.62644807 7.92431498 -24.85783421 5.9938402 -22.0625 3.625 C-21.36125 3.02300781 -20.66 2.42101563 -19.9375 1.80078125 C-14.67567083 -2.37579565 -6.30807572 -1.43488418 0 0 Z " fill="#C6CFD5" transform="translate(105.0625,38.6875)"/>
<path d="M0 0 C0.76555855 2.25664645 1.12533965 3.58076048 0.43359375 5.89453125 C-4.06317335 14.55301222 -8.35431913 19.55393244 -17.67578125 23.1328125 C-23.12511475 24.55437776 -28.4173719 24.40519075 -34 24 C-34 23.67 -34 23.34 -34 23 C-32.96552734 22.94392578 -32.96552734 22.94392578 -31.91015625 22.88671875 C-21.7853221 22.17839702 -14.57266633 20.49640832 -7.01953125 13.40625 C-3.65943368 9.40272949 -1.78302242 4.87419195 0 0 Z " fill="#DBDEE2" transform="translate(188,149)"/>
<path d="M0 0 C0.33 0 0.66 0 1 0 C1 16.5 1 33 1 50 C1.66 50 2.32 50 3 50 C3.33 49.01 3.66 48.02 4 47 C4.66 47.33 5.32 47.66 6 48 C5.19152271 49.16945792 4.37810888 50.33550461 3.5625 51.5 C2.88380859 52.47453125 2.88380859 52.47453125 2.19140625 53.46875 C1.79824219 53.9740625 1.40507812 54.479375 1 55 C0.67 55 0.34 55 0 55 C0 36.85 0 18.7 0 0 Z " fill="#3A5262" transform="translate(167,49)"/>
<path d="M0 0 C0.3755102 7.51020408 0.3755102 7.51020408 -1.4375 9.875 C-3.45875656 12.62390893 -3.71297448 14.89181938 -4.1875 18.25 C-4.34605469 19.32765625 -4.50460938 20.4053125 -4.66796875 21.515625 C-4.77753906 22.33546875 -4.88710938 23.1553125 -5 24 C-5.33 24 -5.66 24 -6 24 C-6.13530844 20.93601549 -6.2342407 17.87802874 -6.3125 14.8125 C-6.35439453 13.94818359 -6.39628906 13.08386719 -6.43945312 12.19335938 C-6.5284504 7.54770187 -6.51701007 5.65509861 -3.54296875 1.88671875 C-1 0 -1 0 0 0 Z " fill="#3A505F" transform="translate(23,118)"/>
<path d="M0 0 C0.33 0 0.66 0 1 0 C1 4.29 1 8.58 1 13 C0.01 13.33 -0.98 13.66 -2 14 C-2.33 14.66 -2.66 15.32 -3 16 C-3.66 16 -4.32 16 -5 16 C-5 12.04 -5 8.08 -5 4 C-3.35 4 -1.7 4 0 4 C0 2.68 0 1.36 0 0 Z " fill="#556F81" transform="translate(173,83)"/>
<path d="M0 0 C1.32 0.66 2.64 1.32 4 2 C2.55746343 5.36591866 0.66735273 7.51047079 -2 10 C-5.875 8.25 -5.875 8.25 -7 6 C-2.25 2 -2.25 2 0 2 C0 1.34 0 0.68 0 0 Z " fill="#175F91" transform="translate(148,124)"/>
<path d="M0 0 C0 0.33 0 0.66 0 1 C-4.455 1.495 -4.455 1.495 -9 2 C-9.33 3.32 -9.66 4.64 -10 6 C-11.5 4.75 -11.5 4.75 -13 3 C-13 1.68 -13 0.36 -13 -1 C-7.45324706 -3.57044649 -5.15403811 -2.68009982 0 0 Z " fill="#2171A0" transform="translate(62,71)"/>
<path d="M0 0 C0.66 0 1.32 0 2 0 C2 1.98 2 3.96 2 6 C1.34 6 0.68 6 0 6 C-0.33 6.66 -0.66 7.32 -1 8 C-2.65532623 9.01866229 -4.32260138 10.01810813 -6 11 C-6.66 11.66 -7.32 12.32 -8 13 C-8.375 10.875 -8.375 10.875 -8 8 C-6.25677649 5.70260359 -4.30361963 3.73666661 -2 2 C-1.34 2 -0.68 2 0 2 C0 1.34 0 0.68 0 0 Z " fill="#1F79B0" transform="translate(176,116)"/>
<path d="M0 0 C0.66 0.33 1.32 0.66 2 1 C0.13238675 2.46870557 -1.74317188 3.92470221 -3.625 5.375 C-4.40810547 5.99375 -4.40810547 5.99375 -5.20703125 6.625 C-8.66504478 9.27187456 -11.80482361 10.85357042 -16 12 C-16 11.34 -16 10.68 -16 10 C-11.33012095 5.65303812 -5.82504653 2.51079592 0 0 Z " fill="#8297A2" transform="translate(74,8)"/>
<path d="M0 0 C0.97066406 0.07863281 1.94132812 0.15726563 2.94140625 0.23828125 C5.4375 0.6875 5.4375 0.6875 7.4375 2.6875 C1.06444402 3.43257544 -5.14561325 3.79099817 -11.5625 3.6875 C-7.98285988 -0.23305822 -5.15463824 -0.45986786 0 0 Z " fill="#122C3B" transform="translate(38.5625,39.3125)"/>
<path d="M0 0 C0 1.32 0 2.64 0 4 C-0.66 4 -1.32 4 -2 4 C-2 4.66 -2 5.32 -2 6 C-3.49609375 7.33203125 -3.49609375 7.33203125 -5.4375 8.8125 C-7.9938918 10.9101844 -8.88777635 11.65584747 -9.9375 14.875 C-9.958125 15.57625 -9.97875 16.2775 -10 17 C-10.33 17 -10.66 17 -11 17 C-10.88391305 12.15600804 -10.78997303 8.95628314 -7.625 5.125 C-6.75875 4.42375 -5.8925 3.7225 -5 3 C-4.443125 2.401875 -3.88625 1.80375 -3.3125 1.1875 C-2 0 -2 0 0 0 Z " fill="#1E6697" transform="translate(178,112)"/>
<path d="M0 0 C0 3 0 3 -1 5 C0.32 5.33 1.64 5.66 3 6 C1.37660195 7.70884005 -0.29319053 9.37446717 -2 11 C-2.66 11 -3.32 11 -4 11 C-4 10.34 -4 9.68 -4 9 C-4.66 9 -5.32 9 -6 9 C-5.52797514 4.75177626 -3.03344482 2.80010291 0 0 Z " fill="#4E6C7B" transform="translate(68,30)"/>
<path d="M0 0 C0.99 0.33 1.98 0.66 3 1 C2.34 1 1.68 1 1 1 C0.5978125 2.11375 0.5978125 2.11375 0.1875 3.25 C-0.95276751 5.89061949 -2.09380306 7.85552844 -4 10 C-4.66 10 -5.32 10 -6 10 C-6.33 10.66 -6.66 11.32 -7 12 C-7.4375 9.375 -7.4375 9.375 -7 6 C-4.98816891 3.55010891 -2.78327158 1.53169336 0 0 Z " fill="#1A4469" transform="translate(175,105)"/>
<path d="M0 0 C4.68001193 1.31625336 7.56732709 4.10253146 11.03515625 7.34375 C13.53335936 9.44959119 15.67276629 11 19 11 C18.34 12.32 17.68 13.64 17 15 C14.28095421 12.77928467 11.56320174 10.55702659 8.84765625 8.33203125 C7.21232176 6.99280671 5.57532014 5.65559988 3.93359375 4.32421875 C2.60408374 3.23818528 1.29845013 2.1229839 0 1 C0 0.67 0 0.34 0 0 Z " fill="#1C5670" transform="translate(59,49)"/>
<path d="M0 0 C-0.51949219 0.38671875 -1.03898437 0.7734375 -1.57421875 1.171875 C-8.55403643 6.26946684 -8.55403643 6.26946684 -15 12 C-14.11460662 7.21465959 -11.44584616 4.30469102 -8 1 C-4.55792781 -0.92115657 -3.77707963 -1.25902654 0 0 Z " fill="#546B7B" transform="translate(21,29)"/>
<path d="M0 0 C2.375 0.1875 2.375 0.1875 5 1 C6.3125 3.5625 6.3125 3.5625 7 6 C2.25 7 2.25 7 0 7 C0 4.69 0 2.38 0 0 Z " fill="#1E76AC" transform="translate(13,101)"/>
<path d="M0 0 C2.5 2 2.5 2 4 4 C2.68 4 1.36 4 0 4 C0 3.34 0 2.68 0 2 C-2.64 2.33 -5.28 2.66 -8 3 C-7.67 4.32 -7.34 5.64 -7 7 C-7.99 6.67 -8.98 6.34 -10 6 C-10 4.35 -10 2.7 -10 1 C-6.81225917 -0.59387042 -3.46072041 -0.52663137 0 0 Z " fill="#2687B7" transform="translate(63,72)"/>
<path d="M0 0 C-0.39803561 2.88575819 -0.79009069 3.82189513 -3.0625 5.75 C-3.701875 6.1625 -4.34125 6.575 -5 7 C-5 5.68 -5 4.36 -5 3 C-5.99 2.67 -6.98 2.34 -8 2 C-4.77208445 -0.1519437 -3.71599191 -0.20086443 0 0 Z " fill="#4B6476" transform="translate(123,162)"/>
<path d="M0 0 C2.95409701 1.37154504 5.44008376 2.98863724 8 5 C7.67 6.32 7.34 7.64 7 9 C5.82460004 8.07347299 4.65989423 7.13336613 3.5 6.1875 C2.52546875 5.40439453 2.52546875 5.40439453 1.53125 4.60546875 C0 3 0 3 0 0 Z " fill="#7F93A1" transform="translate(30,161)"/>
<path d="M0 0 C0.33 0 0.66 0 1 0 C1.1875 3.375 1.1875 3.375 1 7 C-2 9 -2 9 -5 9 C-5 7.35 -5 5.7 -5 4 C-3.35 4 -1.7 4 0 4 C0 2.68 0 1.36 0 0 Z " fill="#728898" transform="translate(173,83)"/>
<path d="M0 0 C1.65 1.65 3.3 3.3 5 5 C4.67 5.99 4.34 6.98 4 8 C5.32 8.66 6.64 9.32 8 10 C7.67 10.99 7.34 11.98 7 13 C4.69 11.02 2.38 9.04 0 7 C0.66 6.67 1.32 6.34 2 6 C1.34 4.02 0.68 2.04 0 0 Z " fill="#173E52" transform="translate(66,68)"/>
<path d="M0 0 C-3.00419641 1.0013988 -5.87709365 1.51421457 -9 2 C-9.33 3.32 -9.66 4.64 -10 6 C-10.66 5.34 -11.32 4.68 -12 4 C-11.625 1.875 -11.625 1.875 -11 0 C-6.98195309 -0.84098656 -3.98196457 -1.05404945 0 0 Z " fill="#20608C" transform="translate(58,68)"/>
<path d="M0 0 C-10.37357631 4.77676538 -10.37357631 4.77676538 -16 3 C-13.63496183 0.63496183 -12.35963958 0.45078941 -9.125 -0.1875 C-8.26132813 -0.36667969 -7.39765625 -0.54585938 -6.5078125 -0.73046875 C-4.00753003 -0.9991907 -2.36944548 -0.7769577 0 0 Z " fill="#90A5B1" transform="translate(92,5)"/>
<path d="M0 0 C0.33 0 0.66 0 1 0 C1.38478078 3.36683181 1.1432716 4.77182671 -0.6875 7.6875 C-3.06921206 10.06921206 -4.81038428 11.0253952 -8 12 C-7.59007812 11.46890625 -7.18015625 10.9378125 -6.7578125 10.390625 C-6.21898437 9.68421875 -5.68015625 8.9778125 -5.125 8.25 C-4.59132812 7.55390625 -4.05765625 6.8578125 -3.5078125 6.140625 C-2.10761086 4.15277397 -1.02144735 2.20156614 0 0 Z " fill="#123952" transform="translate(178,139)"/>
<path d="M0 0 C-0.33 1.32 -0.66 2.64 -1 4 C-1.66 4 -2.32 4 -3 4 C-3 4.99 -3 5.98 -3 7 C-5.4375 6.625 -5.4375 6.625 -8 6 C-8.33 5.34 -8.66 4.68 -9 4 C-7.68 4 -6.36 4 -5 4 C-5 3.34 -5 2.68 -5 2 C-2 0 -2 0 0 0 Z " fill="#1E7BB0" transform="translate(145,122)"/>
<path d="M0 0 C-0.375 2.4375 -0.375 2.4375 -1 5 C-1.99 5.495 -1.99 5.495 -3 6 C-3 5.34 -3 4.68 -3 4 C-4.65 4 -6.3 4 -8 4 C-4.5 0 -4.5 0 0 0 Z " fill="#2F4354" transform="translate(126,158)"/>
<path d="M0 0 C4.875 2.75 4.875 2.75 6 5 C4.68 5 3.36 5 2 5 C2 4.34 2 3.68 2 3 C1.34 3 0.68 3 0 3 C0 2.01 0 1.02 0 0 Z M-1 5 C2 5 2 5 3.6875 6.5 C4.120625 6.995 4.55375 7.49 5 8 C4.67 8.66 4.34 9.32 4 10 C2.35 8.35 0.7 6.7 -1 5 Z " fill="#164056" transform="translate(93,91)"/>
<path d="M0 0 C0.6875 1.75 0.6875 1.75 1 4 C-0.3125 6 -0.3125 6 -2 8 C-2.69580267 9.31836295 -3.37224433 10.64791086 -4 12 C-4.33292585 7.75519536 -4.43885872 5.64457375 -2 2.0625 C-1.34 1.381875 -0.68 0.70125 0 0 Z " fill="#4B6270" transform="translate(22,122)"/>
<path d="M0 0 C2.125 0.9375 2.125 0.9375 4 2 C2.35830472 4.02054804 0.69088222 6.02043058 -1 8 C-1.33 8 -1.66 8 -2 8 C-2 5.69 -2 3.38 -2 1 C-1.34 0.67 -0.68 0.34 0 0 Z " fill="#1A608E" transform="translate(15,107)"/>
<path d="M0 0 C1.5 1.25 1.5 1.25 3 3 C3 4.32 3 5.64 3 7 C3.99 8.485 3.99 8.485 5 10 C1.18315774 8.44499019 -1.19195732 5.96404505 -4 3 C-3.01 3 -2.02 3 -1 3 C-0.67 2.01 -0.34 1.02 0 0 Z " fill="#163D54" transform="translate(110,105)"/>
<path d="M0 0 C-2.96687001 1.64826111 -5.65626525 2.44271087 -9 3 C-9 3.99 -9 4.98 -9 6 C-9.66 6 -10.32 6 -11 6 C-10.63680051 3.3668037 -10.14494976 2.15568678 -8.3125 0.1875 C-5.20761963 -1.40689803 -3.31383374 -0.82845843 0 0 Z " fill="#1A3C5A" transform="translate(53,63)"/>
<path d="M0 0 C1 2 1 2 0.51171875 4.12890625 C0.23972656 4.93199219 -0.03226563 5.73507813 -0.3125 6.5625 C-0.57675781 7.36816406 -0.84101563 8.17382812 -1.11328125 9.00390625 C-2 11 -2 11 -4 12 C-3.28571429 3.42857143 -3.28571429 3.42857143 0 0 Z " fill="#5E7482" transform="translate(22,126)"/>
<path d="M0 0 C0.66 0 1.32 0 2 0 C0.55746343 3.36591866 -1.33264727 5.51047079 -4 8 C-5.32 7.34 -6.64 6.68 -8 6 C-7.13375 5.9071875 -7.13375 5.9071875 -6.25 5.8125 C-3.13207906 4.6865841 -1.98619837 2.58205789 0 0 Z " fill="#1A4F78" transform="translate(150,126)"/>
<path d="M0 0 C0.90492187 0.02320312 1.80984375 0.04640625 2.7421875 0.0703125 C4.10730469 0.09738281 4.10730469 0.09738281 5.5 0.125 C6.19867188 0.14820312 6.89734375 0.17140625 7.6171875 0.1953125 C7.6171875 0.5253125 7.6171875 0.8553125 7.6171875 1.1953125 C3.1621875 1.6903125 3.1621875 1.6903125 -1.3828125 2.1953125 C-1.7128125 3.5153125 -2.0428125 4.8353125 -2.3828125 6.1953125 C-3.0428125 4.8753125 -3.7028125 3.5553125 -4.3828125 2.1953125 C-2.3828125 0.1953125 -2.3828125 0.1953125 0 0 Z " fill="#247BAA" transform="translate(54.3828125,70.8046875)"/>
<path d="M0 0 C2.3125 0.1875 2.3125 0.1875 5 1 C6.6875 3.375 6.6875 3.375 8 6 C8.99 7.485 8.99 7.485 10 9 C6.55729549 7.46990911 3.81074178 5.5068778 1 3 C0.67 2.01 0.34 1.02 0 0 Z " fill="#848D94" transform="translate(103,39)"/>
<path d="M0 0 C2.1640625 0.36328125 2.1640625 0.36328125 4 1 C2.5433323 2.14795006 1.08461063 3.29329419 -0.375 4.4375 C-1.18710938 5.07558594 -1.99921875 5.71367188 -2.8359375 6.37109375 C-5 8 -5 8 -7 9 C-5.4404735 5.17207132 -3.16368164 2.63640136 0 0 Z " fill="#DEE1E4" transform="translate(84,41)"/>
<path d="M0 0 C1.32 0 2.64 0 4 0 C4.103125 0.639375 4.20625 1.27875 4.3125 1.9375 C4.539375 2.618125 4.76625 3.29875 5 4 C5.99 4.33 6.98 4.66 8 5 C7.01 5.33 6.02 5.66 5 6 C4.34 5.67 3.68 5.34 3 5 C3 4.34 3 3.68 3 3 C2.01 2.67 1.02 2.34 0 2 C0 1.34 0 0.68 0 0 Z " fill="#192A37" transform="translate(95,96)"/>
<path d="M0 0 C5.75 1.875 5.75 1.875 8 3 C8.625 5.5625 8.625 5.5625 9 8 C7.68388323 7.04663979 6.37221039 6.08714226 5.0625 5.125 C4.33160156 4.59132813 3.60070312 4.05765625 2.84765625 3.5078125 C1 2 1 2 0 0 Z " fill="#1A4762" transform="translate(82,68)"/>
<path d="M0 0 C4.95 0.99 4.95 0.99 10 2 C10 2.99 10 3.98 10 5 C5.2482602 4.56802365 3.07999946 3.67230705 0 0 Z " fill="#95A2A8" transform="translate(42,25)"/>
<path d="M0 0 C1.65 1.65 3.3 3.3 5 5 C4.34 5.66 3.68 6.32 3 7 C2.01 7 1.02 7 0 7 C0 4.69 0 2.38 0 0 Z " fill="#24A1D3" transform="translate(135,113)"/>
<path d="M0 0 C1.98 0 3.96 0 6 0 C6 0.99 6 1.98 6 3 C3.50907189 4.24546405 2.58919267 3.7767578 0 3 C0 2.01 0 1.02 0 0 Z " fill="#2286BE" transform="translate(13,98)"/>
<path d="M0 0 C0 3 0 3 -1 5 C0.32 5.33 1.64 5.66 3 6 C1.35 6.33 -0.3 6.66 -2 7 C-2.6875 5.1875 -2.6875 5.1875 -3 3 C-1.5625 1.25 -1.5625 1.25 0 0 Z " fill="#718D99" transform="translate(68,30)"/>
<path d="M0 0 C3.63 0 7.26 0 11 0 C10.67 0.66 10.34 1.32 10 2 C7.69 1.67 5.38 1.34 3 1 C3.33 1.99 3.66 2.98 4 4 C2.68 3.34 1.36 2.68 0 2 C0 1.34 0 0.68 0 0 Z " fill="#3B5669" transform="translate(155,25)"/>
<path d="M0 0 C0.33 0.99 0.66 1.98 1 3 C-0.375 4.5 -0.375 4.5 -2 6 C-2.66 6 -3.32 6 -4 6 C-4.33 6.66 -4.66 7.32 -5 8 C-5 6.68 -5 5.36 -5 4 C-2.5 1.75 -2.5 1.75 0 0 Z " fill="#283D4E" transform="translate(22,115)"/>
<path d="M0 0 C3.36591866 1.44253657 5.51047079 3.33264727 8 6 C6.68 6.33 5.36 6.66 4 7 C4 6.34 4 5.68 4 5 C3.34 5 2.68 5 2 5 C1.34 3.35 0.68 1.7 0 0 Z " fill="#7E8791" transform="translate(94,63)"/>
<path d="M0 0 C1.32 0 2.64 0 4 0 C4 1.32 4 2.64 4 4 C3.34 4 2.68 4 2 4 C1.67 4.99 1.34 5.98 1 7 C0.67 4.69 0.34 2.38 0 0 Z " fill="#9EAFB8" transform="translate(140,57)"/>
<path d="M0 0 C0.66 0 1.32 0 2 0 C2 0.66 2 1.32 2 2 C1.34 2 0.68 2 0 2 C0 1.34 0 0.68 0 0 Z M-2 2 C-1.34 2 -0.68 2 0 2 C-0.66 3.32 -1.32 4.64 -2 6 C-2.99 6 -3.98 6 -5 6 C-3.625 4 -3.625 4 -2 2 Z " fill="#1C72A7" transform="translate(176,116)"/>
<path d="M0 0 C0.66 0.33 1.32 0.66 2 1 C0.625 3 0.625 3 -1 5 C-1.66 5 -2.32 5 -3 5 C-3.33 5.66 -3.66 6.32 -4 7 C-3.6875 4.625 -3.6875 4.625 -3 2 C-2.01 1.34 -1.02 0.68 0 0 Z " fill="#1A4A76" transform="translate(172,110)"/>
<path d="M0 0 C1.65 1.65 3.3 3.3 5 5 C4.34 5.66 3.68 6.32 3 7 C1.02 5.35 -0.96 3.7 -3 2 C-2.01 1.34 -1.02 0.68 0 0 Z " fill="#3EB9D6" transform="translate(85,80)"/>
<path d="M0 0 C0.99 0.33 1.98 0.66 3 1 C4.1875 4.0625 4.1875 4.0625 5 7 C4.34 7 3.68 7 3 7 C3 6.01 3 5.02 3 4 C2.01 4 1.02 4 0 4 C0 2.68 0 1.36 0 0 Z " fill="#17303E" transform="translate(63,67)"/>
<path d="M0 0 C2.625 -0.1875 2.625 -0.1875 5 0 C5.33 0.66 5.66 1.32 6 2 C3.36 2.33 0.72 2.66 -2 3 C-1.34 2.01 -0.68 1.02 0 0 Z " fill="#1D557E" transform="translate(50,65)"/>
<path d="M0 0 C0.66 0.33 1.32 0.66 2 1 C-0.39509338 3.89932357 -2.31245243 4.50168276 -6 5 C-6 4.34 -6 3.68 -6 3 C-4.03533587 1.93224776 -2.03144641 0.93446535 0 0 Z " fill="#5E7786" transform="translate(64,15)"/>
</svg>
